<svg width="20" height="20" viewBox="0 0 20 20" fill="none" xmlns="http://www.w3.org/2000/svg">
<path fill-rule="evenodd" clip-rule="evenodd" d="M10 -0.000976562C4.477 -0.000976562 0 4.48302 0 10.016C0 14.441 2.865 18.196 6.839 19.52C7.339 19.612 7.521 19.303 7.521 19.037C7.521 18.8 7.513 18.169 7.508 17.334C4.726 17.939 4.139 15.991 4.139 15.991C3.685 14.833 3.029 14.525 3.029 14.525C2.121 13.905 3.098 13.917 3.098 13.917C4.101 13.987 4.629 14.949 4.629 14.949C5.521 16.479 6.97 16.037 7.539 15.781C7.631 15.134 7.889 14.693 8.175 14.443C5.955 14.19 3.62 13.33 3.62 9.49202C3.62 8.39902 4.01 7.50402 4.649 6.80402C4.546 6.55102 4.203 5.53202 4.747 4.15402C4.747 4.15402 5.587 3.88402 7.497 5.18002C8.31277 4.95754 9.15444 4.84422 10 4.84302C10.85 4.84702 11.705 4.95802 12.504 5.18002C14.413 3.88402 15.251 4.15302 15.251 4.15302C15.797 5.53202 15.453 6.55102 15.351 6.80402C15.991 7.50402 16.379 8.39902 16.379 9.49202C16.379 13.34 14.04 14.187 11.813 14.435C12.172 14.744 12.491 15.355 12.491 16.29C12.491 17.628 12.479 18.709 12.479 19.037C12.479 19.305 12.659 19.617 13.167 19.519C15.1583 18.8511 16.8893 17.5743 18.1155 15.8691C19.3416 14.1638 20.0009 12.1163 20 10.016C20 4.48302 15.522 -0.000976562 10 -0.000976562Z" fill="white"/>
</svg>
